<?xml version="1.0" encoding="UTF-8"?>
<svg id="Layer_1" data-name="Layer 1" xmlns="http://www.w3.org/2000/svg" viewBox="0 0 1080 600">
  <defs>
    <style>
      .cls-1 {
        fill: #0d9488;
      }
    </style>
  </defs>
  <g>
    <path class="cls-1" d="M490.8,202.06h-34.11s.03-91.75,.03-91.75c0-9.91,.43-20.85,1.29-32.83h-.86c-1.79,9.41-3.39,16.18-4.82,20.31l-35.96,104.24h-28.23s-36.54-103.2-36.54-103.2c-1-2.78-2.6-9.91-4.81-21.39h-.96c.92,15.11,1.38,28.37,1.38,39.78l-.02,84.79h-31.12s.04-153.34,.04-153.34h50.58s31.3,90.91,31.3,90.91c2.49,7.27,4.31,14.58,5.45,21.92h.64c1.93-8.48,3.96-15.86,6.1-22.13l31.35-90.67h49.29s-.04,153.35-.04,153.35Z"/>
    <path class="cls-1" d="M660.5,202.11h-37.64s-10.9-34.12-10.9-34.12l-54.53-.02-10.81,34.11h-37.42s55.86-153.33,55.86-153.33h40.95s54.49,153.36,54.49,153.36Zm-56.44-60.64l-16.45-51.54c-1.21-3.85-2.07-8.45-2.56-13.79h-.86c-.36,4.49-1.25,8.95-2.68,13.36l-16.7,51.96h39.24Z"/>
    <path class="cls-1" d="M808.27,202.15h-39.67s-23.83-39.47-23.83-39.47c-1.78-2.99-3.49-5.67-5.13-8.02-1.64-2.35-3.3-4.37-4.97-6.04-1.68-1.67-3.42-2.96-5.24-3.85-1.82-.89-3.8-1.34-5.93-1.34h-9.3s-.02,58.7-.02,58.7h-34.54s.04-153.34,.04-153.34h54.75c37.21,.03,55.81,13.93,55.8,41.73,0,5.35-.82,10.28-2.46,14.81-1.64,4.53-3.96,8.61-6.95,12.24s-6.62,6.77-10.86,9.41c-4.24,2.64-8.97,4.7-14.17,6.2v.43c2.28,.71,4.49,1.87,6.63,3.48,2.14,1.6,4.2,3.48,6.2,5.62,1.99,2.14,3.9,4.44,5.72,6.9,1.82,2.46,3.47,4.87,4.97,7.22l28.96,45.34Zm-94.06-127.48v42.66s14.96,0,14.96,0c7.41,0,13.37-2.13,17.86-6.41,4.56-4.35,6.85-9.73,6.85-16.14,0-13.4-8.01-20.1-24.05-20.11h-15.61Z"/>
    <path class="cls-1" d="M930.31,76.97h-43.73s-.03,125.2-.03,125.2h-34.64s.03-125.22,.03-125.22h-43.52s0-28.13,0-28.13l121.9,.03v28.12Z"/>
  </g>
  <g>
    <path class="cls-1" d="M292.01,509.66c0,31.26-15.52,46.88-46.55,46.88H91.04c-30.82,0-46.23-15.62-46.23-46.88v-122.29H121.53v104.58h93.76v-100.65L61.53,245.74c-11.15-10.71-16.72-24.37-16.72-40.98V90.67c0-31.47,15.41-47.21,46.23-47.21H245.45c31.03,0,46.55,15.52,46.55,46.55v114.75h-76.72V108.05H121.53v92.78l153.76,144.91c11.15,10.49,16.72,24.37,16.72,41.64v122.29Z"/>
    <path class="cls-1" d="M888.87,293.67H352.64v86.26h64.47v37.82h-64.47v128.93h-43.6V255.1H888.87v38.57Z"/>
    <g>
      <path class="cls-1" d="M569.85,472.74c-.01,46.05-21.48,69.07-64.39,69.06-41.63-.01-62.44-22.51-62.43-67.49l.02-88.54h34.64s-.02,88.97-.02,88.97c0,24.81,9.68,37.21,29.07,37.22,19.03,0,28.55-11.97,28.56-35.92l.02-90.25h34.54s-.02,86.94-.02,86.94Z"/>
      <path class="cls-1" d="M741.13,539.19h-34.86s-63.17-96.37-63.17-96.37c-3.71-5.63-6.27-9.87-7.7-12.73h-.43c.57,5.42,.85,13.69,.85,24.81l-.02,84.26h-32.61s.04-153.34,.04-153.34h37.21s60.82,93.38,60.82,93.38c2.78,4.21,5.34,8.38,7.69,12.51h.43c-.57-3.56-.85-10.59-.85-21.06l.02-84.79h32.61s-.04,153.34-.04,153.34Z"/>
      <path class="cls-1" d="M776.2,539.2l.04-153.33h54.32c54.46,.03,81.69,24.95,81.67,74.78,0,23.88-7.44,42.95-22.31,57.2-14.87,14.25-34.67,21.38-59.4,21.37h-54.32Zm34.57-125.22l-.03,97.2h17.11c14.97,0,26.71-4.48,35.24-13.46,8.52-8.98,12.78-21.2,12.79-36.67,0-14.61-4.22-26.11-12.66-34.49-8.45-8.38-20.3-12.57-35.55-12.57h-16.89Z"/>
      <path class="cls-1" d="M930.6,533.36v-34.22c6.21,5.21,12.95,9.11,20.22,11.71,7.27,2.6,14.61,3.91,22.03,3.91,4.35,0,8.14-.39,11.39-1.17,3.24-.78,5.95-1.87,8.13-3.26,2.17-1.39,3.8-3.03,4.87-4.92,1.07-1.89,1.61-3.94,1.61-6.15,0-2.99-.85-5.67-2.56-8.02-1.71-2.35-4.04-4.53-7-6.52-2.96-2-6.47-3.92-10.53-5.78-4.06-1.85-8.45-3.75-13.15-5.67-11.97-4.99-20.9-11.09-26.78-18.29-5.88-7.2-8.82-15.9-8.81-26.09,0-7.98,1.61-14.84,4.82-20.58,3.21-5.74,7.58-10.46,13.1-14.16,5.52-3.7,11.92-6.43,19.2-8.17,7.27-1.74,14.97-2.61,23.1-2.61,7.98,0,15.06,.48,21.22,1.45,6.16,.96,11.85,2.45,17.05,4.44v31.97c-2.57-1.78-5.37-3.35-8.4-4.71-3.03-1.35-6.15-2.48-9.36-3.37-3.21-.89-6.4-1.55-9.57-1.98-3.17-.43-6.19-.64-9.04-.64-3.92,0-7.49,.37-10.69,1.12-3.21,.75-5.92,1.8-8.13,3.15-2.21,1.35-3.92,2.98-5.13,4.86-1.21,1.89-1.82,4.01-1.82,6.36,0,2.57,.68,4.87,2.03,6.9,1.35,2.03,3.28,3.96,5.77,5.77,2.49,1.82,5.52,3.6,9.09,5.35,3.56,1.75,7.59,3.55,12.08,5.4,6.13,2.57,11.64,5.3,16.52,8.18,4.88,2.89,9.07,6.15,12.56,9.79,3.49,3.64,6.16,7.79,8.02,12.46,1.85,4.67,2.78,10.11,2.78,16.31,0,8.55-1.63,15.74-4.87,21.54-3.25,5.81-7.65,10.51-13.21,14.11-5.56,3.6-12.03,6.18-19.41,7.75-7.38,1.57-15.17,2.35-23.36,2.35-8.41,0-16.41-.72-24-2.14-7.59-1.43-14.17-3.57-19.73-6.42Z"/>
    </g>
  </g>
</svg>